# xmcd
#
# Track frame offsets: 
#        150
#        11687
#        28320
#        50560
#        67962
#        81837
#        110592
#        123502
#        137747
#        162372
#        176007
#        203372
#
# Disc length: 2926 seconds
#
# Revision: 4
# Processed by: cddbd v1.5.2PL0 Copyright (c) Steve Scherf et al.
# Submitted via: ExactAudioCopyFreeDBPlugin 1.0
#
DISCID=a30b6c0c
DTITLE=The Marshall Tucker Band - Country Tucker
DYEAR=1996
DGENRE=Country
TTITLE0=Hillbilly Band
TTITLE1=This Ol' Cowboy
TTITLE2=Heard It in a Love Song
TTITLE3=Searchin' for a Rainbow
TTITLE4=See You Later, I'm Gone
TTITLE5=Desert Skies
TTITLE6=Long Hard Ride
TTITLE7=Fire on the Mountain
TTITLE8=Never Trust a Stranger
TTITLE9=Property Line
TTITLE10=Can't You See
TTITLE11=Blue Ridge Mountain Sky
EXTD=
EXTT0=
EXTT1=
EXTT2=
EXTT3=
EXTT4=
EXTT5=
EXTT6=
EXTT7=
EXTT8=
EXTT9=
EXTT10=
EXTT11=
PLAYORDER=
